<svg xmlns="http://www.w3.org/2000/svg" xmlns:xlink="http://www.w3.org/1999/xlink" width="500" zoomAndPan="magnify" viewBox="0 0 375 374.999991" height="500" preserveAspectRatio="xMidYMid meet" version="1.0"><defs><g/><clipPath id="524b47a213"><path d="M 6.855469 12.375 L 365.144531 12.375 L 365.144531 370.664062 L 6.855469 370.664062 Z M 6.855469 12.375 " clip-rule="nonzero"/></clipPath><clipPath id="b59cf60399"><path d="M 186 12.375 C 87.0625 12.375 6.855469 92.582031 6.855469 191.519531 C 6.855469 290.457031 87.0625 370.664062 186 370.664062 C 284.9375 370.664062 365.144531 290.457031 365.144531 191.519531 C 365.144531 92.582031 284.9375 12.375 186 12.375 Z M 186 12.375 " clip-rule="nonzero"/></clipPath></defs><g clip-path="url(#524b47a213)"><g clip-path="url(#b59cf60399)"><path fill="#ef233c" d="M 6.855469 12.375 L 365.144531 12.375 L 365.144531 370.664062 L 6.855469 370.664062 Z M 6.855469 12.375 " fill-opacity="1" fill-rule="nonzero"/></g></g><g fill="#edf2f4" fill-opacity="1"><g transform="translate(87.198397, 194.723394)"><g><path d="M 11.34375 0 C 8.65625 0 6.53125 -0.738281 4.96875 -2.21875 C 3.40625 -3.695312 2.625 -5.863281 2.625 -8.71875 L 2.625 -20.296875 C 2.625 -26.109375 3.5 -30.519531 5.25 -33.53125 C 7.007812 -36.550781 9.234375 -38.71875 11.921875 -40.03125 L 11.515625 -41.59375 L 10.109375 -41.59375 C 7.585938 -41.59375 5.597656 -42.398438 4.140625 -44.015625 C 2.691406 -45.628906 1.941406 -47.835938 1.890625 -50.640625 C 1.835938 -53.378906 2.5625 -55.566406 4.0625 -57.203125 C 5.570312 -58.847656 7.585938 -59.671875 10.109375 -59.671875 L 38.875 -59.671875 C 44.738281 -59.671875 47.671875 -56.929688 47.671875 -51.453125 C 47.671875 -48.992188 46.957031 -47.023438 45.53125 -45.546875 C 44.113281 -44.066406 41.894531 -43.328125 38.875 -43.328125 L 22.859375 -43.328125 C 20.828125 -43.328125 19.8125 -42.144531 19.8125 -39.78125 L 19.8125 -33.875 C 22.382812 -34.582031 25.066406 -35.398438 27.859375 -36.328125 C 30.660156 -37.265625 33.347656 -37.734375 35.921875 -37.734375 C 38.660156 -37.734375 40.78125 -37.0625 42.28125 -35.71875 C 43.789062 -34.375 44.546875 -32.332031 44.546875 -29.59375 C 44.546875 -26.90625 43.789062 -24.890625 42.28125 -23.546875 C 40.78125 -22.203125 38.660156 -21.503906 35.921875 -21.453125 C 33.347656 -21.398438 30.648438 -21.820312 27.828125 -22.71875 C 25.003906 -23.625 22.304688 -24.4375 19.734375 -25.15625 L 19.640625 -8.71875 C 19.640625 -5.863281 18.882812 -3.695312 17.375 -2.21875 C 15.875 -0.738281 13.863281 0 11.34375 0 Z M 11.34375 0 "/></g></g></g><g fill="#edf2f4" fill-opacity="1"><g transform="translate(135.947158, 194.723394)"><g><path d="M 22.6875 -0.171875 C 20 -0.171875 17.4375 -0.414062 15 -0.90625 C 12.5625 -1.394531 10.425781 -2.335938 8.59375 -3.734375 C 6.757812 -5.140625 5.304688 -7.171875 4.234375 -9.828125 C 3.160156 -12.484375 2.625 -15.972656 2.625 -20.296875 C 2.625 -24.191406 3.144531 -27.535156 4.1875 -30.328125 C 5.226562 -33.128906 6.472656 -35.347656 7.921875 -36.984375 C 9.378906 -38.628906 10.710938 -39.644531 11.921875 -40.03125 L 11.515625 -41.59375 L 10.109375 -41.59375 C 7.585938 -41.59375 5.597656 -42.398438 4.140625 -44.015625 C 2.691406 -45.628906 1.941406 -47.835938 1.890625 -50.640625 C 1.835938 -53.378906 2.5625 -55.566406 4.0625 -57.203125 C 5.570312 -58.847656 7.585938 -59.671875 10.109375 -59.671875 L 39.625 -59.671875 C 45.488281 -59.671875 48.421875 -56.929688 48.421875 -51.453125 C 48.421875 -48.992188 47.707031 -47.023438 46.28125 -45.546875 C 44.851562 -44.066406 42.632812 -43.328125 39.625 -43.328125 L 22.609375 -43.328125 C 20.578125 -43.328125 19.5625 -42.144531 19.5625 -39.78125 L 19.5625 -33.625 C 22.300781 -34.226562 25.164062 -34.9375 28.15625 -35.75 C 31.144531 -36.570312 33.976562 -36.984375 36.65625 -36.984375 C 39.238281 -36.984375 41.171875 -36.421875 42.453125 -35.296875 C 43.742188 -34.179688 44.390625 -32.664062 44.390625 -30.75 C 44.390625 -28.769531 43.742188 -27.21875 42.453125 -26.09375 C 41.171875 -24.976562 39.238281 -24.390625 36.65625 -24.328125 C 33.976562 -24.273438 31.128906 -24.660156 28.109375 -25.484375 C 25.097656 -26.304688 22.222656 -27.019531 19.484375 -27.625 L 19.484375 -16.859375 C 19.484375 -15.816406 19.769531 -15.085938 20.34375 -14.671875 C 20.914062 -14.265625 21.832031 -14.414062 23.09375 -15.125 C 25.832031 -16.71875 28.515625 -17.992188 31.140625 -18.953125 C 33.773438 -19.910156 36.351562 -20.390625 38.875 -20.390625 C 42.4375 -20.390625 45.132812 -19.457031 46.96875 -17.59375 C 48.8125 -15.726562 49.734375 -13.289062 49.734375 -10.28125 C 49.734375 -7.039062 48.757812 -4.546875 46.8125 -2.796875 C 44.863281 -1.046875 41.726562 -0.171875 37.40625 -0.171875 Z M 22.6875 -0.171875 "/></g></g></g><g fill="#edf2f4" fill-opacity="1"><g transform="translate(186.422272, 194.723394)"><g><path d="M 27.953125 0.25 C 24.878906 0.25 21.796875 -0.0625 18.703125 -0.6875 C 15.609375 -1.320312 12.757812 -2.253906 10.15625 -3.484375 C 7.550781 -4.722656 5.453125 -6.234375 3.859375 -8.015625 C 2.273438 -9.796875 1.484375 -11.863281 1.484375 -14.21875 C 1.484375 -17.238281 2.441406 -19.648438 4.359375 -21.453125 C 6.273438 -23.265625 8.519531 -24.113281 11.09375 -24 C 13.125 -23.945312 15.148438 -23.519531 17.171875 -22.71875 C 19.203125 -21.925781 21.269531 -21.144531 23.375 -20.375 C 25.488281 -19.613281 27.613281 -19.234375 29.75 -19.234375 C 31.894531 -19.234375 33.375 -19.503906 34.1875 -20.046875 C 35.007812 -20.597656 35.421875 -21.34375 35.421875 -22.28125 C 35.421875 -23.375 34.847656 -24.273438 33.703125 -24.984375 C 32.554688 -25.703125 31.101562 -26.253906 29.34375 -26.640625 L 25.3125 -27.625 C 21.15625 -28.601562 17.429688 -29.707031 14.140625 -30.9375 C 10.847656 -32.175781 8.253906 -33.820312 6.359375 -35.875 C 4.472656 -37.9375 3.53125 -40.691406 3.53125 -44.140625 C 3.53125 -47.921875 4.570312 -51.003906 6.65625 -53.390625 C 8.738281 -55.773438 11.5625 -57.515625 15.125 -58.609375 C 18.6875 -59.703125 22.660156 -60.25 27.046875 -60.25 C 31.535156 -60.25 35.476562 -59.78125 38.875 -58.84375 C 42.28125 -57.914062 44.925781 -56.578125 46.8125 -54.828125 C 48.707031 -53.078125 49.65625 -50.941406 49.65625 -48.421875 C 49.65625 -45.734375 48.925781 -43.632812 47.46875 -42.125 C 46.019531 -40.625 44.085938 -39.875 41.671875 -39.875 C 40.085938 -39.875 38.429688 -40.144531 36.703125 -40.6875 C 34.972656 -41.238281 33.160156 -41.773438 31.265625 -42.296875 C 29.378906 -42.816406 27.367188 -43.078125 25.234375 -43.078125 C 23.316406 -43.078125 21.863281 -42.785156 20.875 -42.203125 C 19.894531 -41.628906 19.40625 -40.878906 19.40625 -39.953125 C 19.40625 -38.796875 20.0625 -37.941406 21.375 -37.390625 C 22.6875 -36.847656 24.847656 -36.191406 27.859375 -35.421875 L 32.46875 -34.359375 C 36.25 -33.429688 39.5625 -32.304688 42.40625 -30.984375 C 45.257812 -29.671875 47.476562 -27.945312 49.0625 -25.8125 C 50.65625 -23.675781 51.453125 -20.878906 51.453125 -17.421875 C 51.453125 -13.253906 50.46875 -9.867188 48.5 -7.265625 C 46.53125 -4.671875 43.789062 -2.769531 40.28125 -1.5625 C 36.769531 -0.351562 32.660156 0.25 27.953125 0.25 Z M 27.953125 0.25 "/></g></g></g><g fill="#edf2f4" fill-opacity="1"><g transform="translate(239.363587, 194.723394)"><g><path d="M 10.03125 -41.59375 C 7.289062 -41.59375 5.054688 -42.382812 3.328125 -43.96875 C 1.597656 -45.5625 0.734375 -47.757812 0.734375 -50.5625 C 0.734375 -53.300781 1.515625 -55.503906 3.078125 -57.171875 C 4.640625 -58.835938 6.957031 -59.671875 10.03125 -59.671875 L 45.453125 -59.671875 C 48.523438 -59.671875 50.84375 -58.835938 52.40625 -57.171875 C 53.96875 -55.503906 54.75 -53.300781 54.75 -50.5625 C 54.75 -47.757812 53.882812 -45.5625 52.15625 -43.96875 C 50.425781 -42.382812 48.191406 -41.59375 45.453125 -41.59375 C 43.585938 -41.59375 42.09375 -41.796875 40.96875 -42.203125 C 39.851562 -42.617188 38.9375 -43.113281 38.21875 -43.6875 C 37.507812 -44.257812 36.828125 -44.75 36.171875 -45.15625 C 35.515625 -45.570312 34.691406 -45.78125 33.703125 -45.78125 L 32.96875 -44.3125 C 33.1875 -43.8125 33.566406 -43.109375 34.109375 -42.203125 C 34.660156 -41.304688 35.179688 -40.019531 35.671875 -38.34375 C 36.171875 -36.675781 36.421875 -34.414062 36.421875 -31.5625 L 36.421875 -7.8125 C 36.421875 -5.5625 35.582031 -3.695312 33.90625 -2.21875 C 32.238281 -0.738281 30.195312 0 27.78125 0 C 25.3125 0 23.242188 -0.738281 21.578125 -2.21875 C 19.910156 -3.695312 19.078125 -5.5625 19.078125 -7.8125 L 19.078125 -31.5625 C 19.078125 -34.414062 19.320312 -36.675781 19.8125 -38.34375 C 20.300781 -40.019531 20.832031 -41.304688 21.40625 -42.203125 C 21.988281 -43.109375 22.390625 -43.8125 22.609375 -44.3125 L 21.78125 -45.78125 C 20.789062 -45.78125 19.96875 -45.570312 19.3125 -45.15625 C 18.65625 -44.75 17.96875 -44.257812 17.25 -43.6875 C 16.539062 -43.113281 15.640625 -42.617188 14.546875 -42.203125 C 13.453125 -41.796875 11.945312 -41.59375 10.03125 -41.59375 Z M 10.03125 -41.59375 "/></g></g></g><g fill="#edf2f4" fill-opacity="1"><g transform="translate(74.455077, 255.279286)"><g><path d="M 21.640625 0.109375 C 17.878906 0.109375 14.492188 -0.664062 11.484375 -2.21875 C 8.472656 -3.769531 6.101562 -6.078125 4.375 -9.140625 C 2.644531 -12.210938 1.78125 -15.992188 1.78125 -20.484375 C 1.78125 -24.972656 2.648438 -28.847656 4.390625 -32.109375 C 6.140625 -35.367188 8.539062 -37.867188 11.59375 -39.609375 C 14.644531 -41.359375 18.128906 -42.234375 22.046875 -42.234375 C 26.566406 -42.234375 30.035156 -41.597656 32.453125 -40.328125 C 34.867188 -39.066406 36.078125 -37.191406 36.078125 -34.703125 C 36.078125 -32.785156 35.554688 -31.203125 34.515625 -29.953125 C 33.484375 -28.703125 32.066406 -28.078125 30.265625 -28.078125 C 28.734375 -28.078125 27.25 -28.28125 25.8125 -28.6875 C 24.375 -29.09375 22.695312 -29.296875 20.78125 -29.296875 C 18.320312 -29.296875 16.378906 -28.582031 14.953125 -27.15625 C 13.535156 -25.738281 12.828125 -23.878906 12.828125 -21.578125 C 12.828125 -19.316406 13.535156 -17.425781 14.953125 -15.90625 C 16.378906 -14.394531 18.320312 -13.640625 20.78125 -13.640625 C 22.082031 -13.640625 23.28125 -13.742188 24.375 -13.953125 C 25.46875 -14.160156 26.539062 -14.378906 27.59375 -14.609375 C 28.644531 -14.847656 29.785156 -14.96875 31.015625 -14.96875 C 33.046875 -14.96875 34.539062 -14.300781 35.5 -12.96875 C 36.457031 -11.644531 36.9375 -10.007812 36.9375 -8.0625 C 36.9375 -6.101562 36.226562 -4.519531 34.8125 -3.3125 C 33.394531 -2.101562 31.523438 -1.226562 29.203125 -0.6875 C 26.878906 -0.15625 24.359375 0.109375 21.640625 0.109375 Z M 21.640625 0.109375 "/></g></g></g><g fill="#edf2f4" fill-opacity="1"><g transform="translate(112.545967, 255.279286)"><g><path d="M 16.0625 0.109375 C 11.570312 0.109375 7.992188 -1.222656 5.328125 -3.890625 C 2.660156 -6.554688 1.328125 -10.320312 1.328125 -15.1875 C 1.328125 -18.1875 1.9375 -20.816406 3.15625 -23.078125 C 4.382812 -25.335938 6.101562 -27.109375 8.3125 -28.390625 C 10.519531 -29.679688 13.101562 -30.328125 16.0625 -30.328125 C 19.351562 -30.328125 22.09375 -29.679688 24.28125 -28.390625 C 26.46875 -27.109375 28.109375 -25.335938 29.203125 -23.078125 C 30.296875 -20.816406 30.84375 -18.1875 30.84375 -15.1875 C 30.84375 -10.320312 29.625 -6.554688 27.1875 -3.890625 C 24.75 -1.222656 21.039062 0.109375 16.0625 0.109375 Z M 8.171875 -16.171875 C 8.171875 -14.984375 8.765625 -14.148438 9.953125 -13.671875 C 11.140625 -13.191406 13.175781 -12.953125 16.0625 -12.953125 C 18.9375 -12.953125 20.96875 -13.191406 22.15625 -13.671875 C 23.34375 -14.148438 23.9375 -14.984375 23.9375 -16.171875 C 23.9375 -17.316406 23.34375 -18.117188 22.15625 -18.578125 C 20.96875 -19.046875 18.9375 -19.28125 16.0625 -19.28125 C 13.175781 -19.28125 11.140625 -19.046875 9.953125 -18.578125 C 8.765625 -18.117188 8.171875 -17.316406 8.171875 -16.171875 Z M 8.171875 -16.171875 "/></g></g></g><g fill="#edf2f4" fill-opacity="1"><g transform="translate(144.652788, 255.279286)"><g><path d="M 7.140625 0 C 5.453125 0 4.097656 -0.503906 3.078125 -1.515625 C 2.054688 -2.535156 1.546875 -3.796875 1.546875 -5.296875 L 1.546875 -24.34375 C 1.546875 -25.957031 2.023438 -27.316406 2.984375 -28.421875 C 3.953125 -29.535156 5.335938 -30.09375 7.140625 -30.09375 C 8.898438 -30.09375 10.238281 -29.535156 11.15625 -28.421875 C 12.082031 -27.316406 12.546875 -25.921875 12.546875 -24.234375 L 12.546875 -21.34375 L 13.578125 -21.34375 C 13.578125 -23.53125 13.96875 -25.253906 14.75 -26.515625 C 15.539062 -27.785156 16.550781 -28.695312 17.78125 -29.25 C 19.007812 -29.8125 20.238281 -30.09375 21.46875 -30.09375 C 24.414062 -30.09375 26.582031 -29.023438 27.96875 -26.890625 C 29.351562 -24.765625 30.046875 -21.75 30.046875 -17.84375 L 30.046875 -5.296875 C 30.046875 -3.796875 29.546875 -2.535156 28.546875 -1.515625 C 27.546875 -0.503906 26.203125 0 24.515625 0 C 22.785156 0 21.410156 -0.503906 20.390625 -1.515625 C 19.378906 -2.535156 18.875 -3.796875 18.875 -5.296875 L 18.875 -15.484375 C 18.875 -16.859375 18.613281 -17.929688 18.09375 -18.703125 C 17.582031 -19.472656 16.828125 -19.859375 15.828125 -19.859375 C 14.671875 -19.859375 13.832031 -19.4375 13.3125 -18.59375 C 12.800781 -17.75 12.546875 -16.671875 12.546875 -15.359375 L 12.546875 -5.296875 C 12.546875 -3.796875 12.066406 -2.535156 11.109375 -1.515625 C 10.148438 -0.503906 8.828125 0 7.140625 0 Z M 7.140625 0 "/></g></g></g><g fill="#edf2f4" fill-opacity="1"><g transform="translate(176.126682, 255.279286)"><g><path d="M 7.140625 0 C 5.453125 0 4.097656 -0.503906 3.078125 -1.515625 C 2.054688 -2.535156 1.546875 -3.796875 1.546875 -5.296875 L 1.546875 -24.34375 C 1.546875 -25.957031 2.023438 -27.316406 2.984375 -28.421875 C 3.953125 -29.535156 5.335938 -30.09375 7.140625 -30.09375 C 8.898438 -30.09375 10.238281 -29.535156 11.15625 -28.421875 C 12.082031 -27.316406 12.546875 -25.921875 12.546875 -24.234375 L 12.546875 -21.34375 L 13.578125 -21.34375 C 13.578125 -23.53125 13.96875 -25.253906 14.75 -26.515625 C 15.539062 -27.785156 16.550781 -28.695312 17.78125 -29.25 C 19.007812 -29.8125 20.238281 -30.09375 21.46875 -30.09375 C 24.414062 -30.09375 26.582031 -29.023438 27.96875 -26.890625 C 29.351562 -24.765625 30.046875 -21.75 30.046875 -17.84375 L 30.046875 -5.296875 C 30.046875 -3.796875 29.546875 -2.535156 28.546875 -1.515625 C 27.546875 -0.503906 26.203125 0 24.515625 0 C 22.785156 0 21.410156 -0.503906 20.390625 -1.515625 C 19.378906 -2.535156 18.875 -3.796875 18.875 -5.296875 L 18.875 -15.484375 C 18.875 -16.859375 18.613281 -17.929688 18.09375 -18.703125 C 17.582031 -19.472656 16.828125 -19.859375 15.828125 -19.859375 C 14.671875 -19.859375 13.832031 -19.4375 13.3125 -18.59375 C 12.800781 -17.75 12.546875 -16.671875 12.546875 -15.359375 L 12.546875 -5.296875 C 12.546875 -3.796875 12.066406 -2.535156 11.109375 -1.515625 C 10.148438 -0.503906 8.828125 0 7.140625 0 Z M 7.140625 0 "/></g></g></g><g fill="#edf2f4" fill-opacity="1"><g transform="translate(207.600576, 255.279286)"><g><path d="M 1.328125 -14.96875 C 1.328125 -18 1.929688 -20.660156 3.140625 -22.953125 C 4.347656 -25.253906 6.070312 -27.054688 8.3125 -28.359375 C 10.5625 -29.671875 13.238281 -30.328125 16.34375 -30.328125 C 18.757812 -30.328125 20.9375 -29.882812 22.875 -29 C 24.8125 -28.125 26.335938 -26.945312 27.453125 -25.46875 C 28.566406 -23.988281 29.125 -22.367188 29.125 -20.609375 C 29.125 -18.765625 28.582031 -17.457031 27.5 -16.6875 C 26.425781 -15.914062 24.835938 -15.53125 22.734375 -15.53125 L 10.640625 -15.53125 C 10.640625 -14.539062 11.03125 -13.71875 11.8125 -13.0625 C 12.601562 -12.40625 13.941406 -12.078125 15.828125 -12.078125 C 16.785156 -12.078125 17.675781 -12.171875 18.5 -12.359375 C 19.320312 -12.554688 20.164062 -12.738281 21.03125 -12.90625 C 21.894531 -13.082031 22.863281 -13.171875 23.9375 -13.171875 C 25.46875 -13.171875 26.734375 -12.625 27.734375 -11.53125 C 28.734375 -10.4375 29.234375 -8.929688 29.234375 -7.015625 C 29.234375 -4.753906 28.070312 -2.988281 25.75 -1.71875 C 23.425781 -0.457031 20.382812 0.171875 16.625 0.171875 C 13.976562 0.171875 11.492188 -0.34375 9.171875 -1.375 C 6.859375 -2.414062 4.972656 -4.054688 3.515625 -6.296875 C 2.054688 -8.546875 1.328125 -11.4375 1.328125 -14.96875 Z M 19.96875 -17.4375 C 20.539062 -17.4375 20.734375 -17.707031 20.546875 -18.25 C 20.390625 -18.78125 19.925781 -19.332031 19.15625 -19.90625 C 18.394531 -20.488281 17.285156 -20.78125 15.828125 -20.78125 C 14.140625 -20.78125 12.878906 -20.414062 12.046875 -19.6875 C 11.222656 -18.957031 10.8125 -18.207031 10.8125 -17.4375 Z M 19.96875 -17.4375 "/></g></g></g><g fill="#edf2f4" fill-opacity="1"><g transform="translate(237.866145, 255.279286)"><g><path d="M 16.34375 0.171875 C 13.351562 0.171875 10.707031 -0.445312 8.40625 -1.6875 C 6.101562 -2.9375 4.296875 -4.710938 2.984375 -7.015625 C 1.679688 -9.316406 1.03125 -12.023438 1.03125 -15.140625 C 1.03125 -18.242188 1.679688 -20.945312 2.984375 -23.25 C 4.296875 -25.550781 6.109375 -27.332031 8.421875 -28.59375 C 10.742188 -29.863281 13.421875 -30.5 16.453125 -30.5 C 18.835938 -30.5 20.941406 -30.25 22.765625 -29.75 C 24.585938 -29.25 26.023438 -28.5 27.078125 -27.5 C 28.128906 -26.507812 28.65625 -25.265625 28.65625 -23.765625 C 28.65625 -21.960938 28.191406 -20.550781 27.265625 -19.53125 C 26.347656 -18.519531 25.03125 -18.015625 23.3125 -18.015625 C 22.15625 -18.015625 21.007812 -18.1875 19.875 -18.53125 C 18.75 -18.875 17.300781 -19.046875 15.53125 -19.046875 C 14.070312 -19.046875 12.84375 -18.816406 11.84375 -18.359375 C 10.851562 -17.898438 10.359375 -17.054688 10.359375 -15.828125 C 10.359375 -14.554688 10.851562 -13.640625 11.84375 -13.078125 C 12.84375 -12.523438 14.070312 -12.25 15.53125 -12.25 C 16.726562 -12.25 17.726562 -12.363281 18.53125 -12.59375 C 19.332031 -12.832031 20.097656 -13.066406 20.828125 -13.296875 C 21.554688 -13.523438 22.382812 -13.640625 23.3125 -13.640625 C 25.257812 -13.640625 26.703125 -13.070312 27.640625 -11.9375 C 28.585938 -10.8125 29.0625 -9.363281 29.0625 -7.59375 C 29.0625 -6.101562 28.503906 -4.769531 27.390625 -3.59375 C 26.273438 -2.425781 24.757812 -1.503906 22.84375 -0.828125 C 20.925781 -0.160156 18.757812 0.171875 16.34375 0.171875 Z M 16.34375 0.171875 "/></g></g></g><g fill="#edf2f4" fill-opacity="1"><g transform="translate(267.671388, 255.279286)"><g><path d="M 18.25 0.171875 C 16.207031 0.171875 14.367188 -0.285156 12.734375 -1.203125 C 11.109375 -2.128906 9.832031 -3.445312 8.90625 -5.15625 C 7.988281 -6.863281 7.53125 -8.867188 7.53125 -11.171875 L 7.53125 -21.296875 L 5.40625 -21 C 4.257812 -20.851562 3.242188 -21.257812 2.359375 -22.21875 C 1.472656 -23.175781 1.03125 -24.382812 1.03125 -25.84375 C 1.03125 -27.300781 1.472656 -28.5 2.359375 -29.4375 C 3.242188 -30.375 4.257812 -30.765625 5.40625 -30.609375 L 7.53125 -30.328125 L 7.484375 -34.234375 C 7.441406 -35.773438 7.878906 -36.992188 8.796875 -37.890625 C 9.722656 -38.796875 11.066406 -39.25 12.828125 -39.25 C 14.597656 -39.25 15.960938 -38.796875 16.921875 -37.890625 C 17.878906 -36.992188 18.320312 -35.773438 18.25 -34.234375 L 18.125 -30.328125 L 21.171875 -30.734375 C 23.242188 -31.035156 24.816406 -30.660156 25.890625 -29.609375 C 26.960938 -28.554688 27.5 -27.300781 27.5 -25.84375 C 27.5 -24.382812 26.972656 -23.125 25.921875 -22.0625 C 24.867188 -21.007812 23.34375 -20.617188 21.34375 -20.890625 L 18.125 -21.296875 L 18.125 -12.71875 C 18.125 -12.21875 18.296875 -11.765625 18.640625 -11.359375 C 18.984375 -10.960938 19.40625 -10.835938 19.90625 -10.984375 C 20.488281 -11.140625 21.09375 -11.46875 21.71875 -11.96875 C 22.351562 -12.46875 23.171875 -12.71875 24.171875 -12.71875 C 25.660156 -12.71875 26.804688 -12.179688 27.609375 -11.109375 C 28.421875 -10.035156 28.828125 -8.710938 28.828125 -7.140625 C 28.828125 -5.910156 28.394531 -4.726562 27.53125 -3.59375 C 26.664062 -2.46875 25.445312 -1.554688 23.875 -0.859375 C 22.300781 -0.171875 20.425781 0.171875 18.25 0.171875 Z M 18.25 0.171875 "/></g></g></g></svg>